<?xml version="1.0" encoding="utf-8"?>
<!-- Generator: Adobe Illustrator 26.0.1, SVG Export Plug-In . SVG Version: 6.00 Build 0)  -->
<svg version="1.1" id="Layer_1" xmlns="http://www.w3.org/2000/svg" xmlns:xlink="http://www.w3.org/1999/xlink" x="0px" y="0px"
	 viewBox="0 0 280.1 112.4" style="enable-background:new 0 0 280.1 112.4;" xml:space="preserve">
<style type="text/css">
	.st0{fill:#FFFFFF;stroke:#000000;stroke-miterlimit:10;}
	.st1{fill:#FFF7EC;}
	.st2{fill:#2675B0;}
	.st3{fill:#AD6D28;}
	.st4{fill:#9BAD28;}
	.st5{fill:#33AB59;}
	.st6{fill:#28ADAD;}
	.st7{fill:#943F90;}
	.st8{opacity:0.29;fill:#FFFFFF;}
	.st9{fill:#FFFFFF;}
	.st10{fill:#3F3F3F;}
	.st11{fill:#5288B6;}
	.st12{fill:#417AAA;}
	.st13{fill:#0D7D41;}
	.st14{fill:#B6860F;}
	.st15{fill:#184188;}
	.st16{fill:#8A1814;}
</style>
<rect x="74.8" y="-137.2" class="st0" width="132" height="90.9"/>
<rect x="-1298.3" y="-155.2" class="st1" width="513.9" height="318.7"/>
<g>
	<g>
		<path d="M388.6-186.6c-4.8,0-8.9-0.9-12.3-2.7s-5.9-4.3-7.7-7.5c-1.8-3.2-2.6-6.9-2.6-11.1c0-4,1-7.6,3.1-10.8
			c2.1-3.2,4.8-5.8,8.3-7.7c3.5-1.9,7.3-2.9,11.5-2.9c5.7,0,10.4,1.7,14,5c3.7,3.3,6,8.1,7.1,14.3l-30.9,9.8l-2.8-6.9l22.3-7.5
			l-2.6,1.2c-0.5-1.6-1.3-3-2.6-4.1c-1.2-1.2-3.1-1.8-5.6-1.8c-1.9,0-3.5,0.4-5,1.3c-1.4,0.9-2.5,2.1-3.3,3.7
			c-0.8,1.6-1.1,3.5-1.1,5.7c0,2.5,0.5,4.6,1.4,6.2c0.9,1.7,2.1,2.9,3.7,3.8c1.6,0.8,3.3,1.3,5.3,1.3c1.4,0,2.7-0.2,4-0.7
			c1.3-0.5,2.6-1.1,3.9-1.9l5.6,9.4c-2.1,1.2-4.4,2.2-6.9,2.9S390.8-186.6,388.6-186.6z"/>
		<path d="M427.3-186.6c-3.7,0-7-0.9-9.9-2.6c-2.9-1.7-5.2-4.2-6.9-7.5c-1.7-3.3-2.5-7.1-2.5-11.6c0-4.5,0.9-8.3,2.7-11.4
			c1.8-3.1,4.3-5.5,7.4-7.2c3.1-1.6,6.7-2.5,10.7-2.5c2.5,0,5,0.4,7.3,1.2c2.3,0.8,4.3,2,5.9,3.6v4v-38.8h12.6v71.7H442v-7.7l1,2.7
			c-2.1,1.7-4.4,3.1-6.9,4.3C433.6-187.2,430.7-186.6,427.3-186.6z M431.5-197.4c1.7,0,3.2-0.2,4.5-0.7c1.3-0.5,2.5-1.1,3.5-2
			c1-0.9,1.9-2,2.6-3.3v-9.7c-0.5-1.3-1.2-2.5-2.2-3.4c-1-0.9-2.2-1.7-3.6-2.2c-1.4-0.5-3-0.8-4.7-0.8c-1.9,0-3.6,0.5-5.2,1.4
			c-1.6,0.9-2.9,2.2-3.9,3.9c-1,1.6-1.5,3.5-1.5,5.6c0,2.1,0.5,4,1.5,5.7c1,1.7,2.3,3,3.9,4C427.9-197.8,429.6-197.4,431.5-197.4z"
			/>
		<path d="M472.5-185.8c-3.6,0-6.6-1.1-9-3.3c-2.4-2.2-3.7-5.1-3.8-8.6v-29.7h12.7v25c0.1,1.8,0.6,3.2,1.4,4.2
			c0.8,1.1,2.1,1.6,4,1.6c1.9,0,3.5-0.6,4.9-1.9s2.4-3,3.2-5.2c0.8-2.2,1.1-4.7,1.1-7.5v-16.2h12.7v39.7h-11.5l-1-7.3l0.2,0.8
			c-0.9,1.6-2.1,3.1-3.5,4.4c-1.4,1.3-3,2.3-5,3C477-186.2,474.8-185.8,472.5-185.8z"/>
		<path d="M517.4-186.9c-3.3,0-6.3-0.6-9.1-1.7c-2.8-1.1-5.2-2.8-7.1-4.8l5.3-7c1.9,1.8,3.7,3,5.4,3.8c1.7,0.8,3.2,1.1,4.5,1.1
			c1,0,2-0.1,2.8-0.3c0.8-0.2,1.5-0.5,2-1c0.5-0.5,0.7-1,0.7-1.8c0-1-0.4-1.8-1.2-2.5c-0.8-0.6-1.9-1.1-3.1-1.5
			c-1.3-0.4-2.6-0.8-4.1-1.2c-3.6-1.1-6.3-2.8-7.9-5c-1.6-2.2-2.4-4.6-2.4-7.2c0-2,0.5-4,1.6-6c1.1-2,2.8-3.7,5.1-5.1
			c2.3-1.4,5.3-2,9-2c3.3,0,6.1,0.3,8.4,1c2.3,0.7,4.5,1.8,6.5,3.3l-4.8,7.4c-1.2-0.9-2.4-1.7-3.9-2.3c-1.4-0.6-2.7-1-4-1
			c-1.1-0.1-2,0.1-2.8,0.4c-0.8,0.3-1.3,0.7-1.8,1.2c-0.4,0.5-0.6,1-0.6,1.5c-0.1,1.2,0.4,2.1,1.3,2.7c0.9,0.7,2.1,1.2,3.6,1.5
			s2.9,0.8,4.3,1.3c1.9,0.6,3.6,1.4,5,2.5c1.4,1,2.5,2.3,3.2,3.7c0.8,1.4,1.1,3.1,1.1,5.1c0,2.4-0.6,4.7-1.9,6.9
			c-1.2,2.2-3.1,3.9-5.6,5.2C524.5-187.6,521.3-186.9,517.4-186.9z"/>
		<path d="M556.5-186.6c-4.8,0-8.9-0.9-12.3-2.7s-5.9-4.3-7.7-7.5c-1.8-3.2-2.6-6.9-2.6-11.1c0-4,1-7.6,3.1-10.8
			c2.1-3.2,4.8-5.8,8.3-7.7c3.5-1.9,7.3-2.9,11.5-2.9c5.7,0,10.4,1.7,14,5c3.7,3.3,6,8.1,7.1,14.3l-30.9,9.8l-2.8-6.9l22.3-7.5
			l-2.6,1.2c-0.5-1.6-1.3-3-2.6-4.1c-1.2-1.2-3.1-1.8-5.6-1.8c-1.9,0-3.5,0.4-5,1.3c-1.4,0.9-2.5,2.1-3.3,3.7
			c-0.8,1.6-1.1,3.5-1.1,5.7c0,2.5,0.5,4.6,1.4,6.2c0.9,1.7,2.1,2.9,3.7,3.8c1.6,0.8,3.3,1.3,5.3,1.3c1.4,0,2.7-0.2,4-0.7
			c1.3-0.5,2.6-1.1,3.9-1.9l5.6,9.4c-2.1,1.2-4.4,2.2-6.9,2.9C561-187,558.7-186.6,556.5-186.6z"/>
		<path d="M590.6-227.4l1,7.1l-0.2-0.6c1.4-2.5,3.4-4.5,5.9-6c2.5-1.5,5.7-2.3,9.4-2.3c3.8,0,6.9,1.1,9.4,3.3
			c2.5,2.2,3.8,5.1,3.9,8.6v29.7h-12.7v-25c-0.1-1.8-0.5-3.2-1.4-4.2c-0.9-1.1-2.3-1.6-4.4-1.6c-1.9,0-3.6,0.6-5.1,1.9
			c-1.5,1.3-2.6,3-3.4,5.2c-0.8,2.2-1.2,4.7-1.2,7.5v16.2H579v-39.7H590.6z"/>
	</g>
</g>
<g>
	<g>
		<path d="M402.5-62.7c-4.8,0-8.9-0.9-12.3-2.7s-5.9-4.3-7.7-7.5c-1.8-3.2-2.6-6.9-2.6-11.1c0-4,1-7.6,3.1-10.8
			c2.1-3.2,4.8-5.8,8.3-7.7c3.5-1.9,7.3-2.9,11.5-2.9c5.7,0,10.4,1.7,14,5c3.7,3.3,6,8.1,7.1,14.3l-30.9,9.8l-2.8-6.9l22.3-7.5
			l-2.6,1.2c-0.5-1.6-1.3-3-2.6-4.1c-1.2-1.2-3.1-1.8-5.6-1.8c-1.9,0-3.5,0.4-5,1.3c-1.4,0.9-2.5,2.1-3.3,3.7
			c-0.8,1.6-1.1,3.5-1.1,5.7c0,2.5,0.5,4.6,1.4,6.2c0.9,1.7,2.1,2.9,3.7,3.8c1.6,0.8,3.3,1.3,5.3,1.3c1.4,0,2.7-0.2,4-0.7
			c1.3-0.5,2.6-1.1,3.9-1.9l5.6,9.4c-2.1,1.2-4.4,2.2-6.9,2.9S404.7-62.7,402.5-62.7z"/>
		<path d="M441.2-62.7c-3.7,0-7-0.9-9.9-2.6c-2.9-1.7-5.2-4.2-6.9-7.5c-1.7-3.3-2.5-7.1-2.5-11.6c0-4.5,0.9-8.3,2.7-11.4
			c1.8-3.1,4.3-5.5,7.4-7.2c3.1-1.6,6.7-2.5,10.7-2.5c2.5,0,5,0.4,7.3,1.2c2.3,0.8,4.3,2,5.9,3.6v4v-38.8h12.6v71.7h-12.7v-7.7
			l1,2.7c-2.1,1.7-4.4,3.1-6.9,4.3C447.5-63.3,444.5-62.7,441.2-62.7z M445.4-73.4c1.7,0,3.2-0.2,4.5-0.7c1.3-0.5,2.5-1.1,3.5-2
			c1-0.9,1.9-2,2.6-3.3v-9.7c-0.5-1.3-1.2-2.5-2.2-3.4c-1-0.9-2.2-1.7-3.6-2.2c-1.4-0.5-3-0.8-4.7-0.8c-1.9,0-3.6,0.5-5.2,1.4
			c-1.6,0.9-2.9,2.2-3.9,3.9c-1,1.6-1.5,3.5-1.5,5.6c0,2.1,0.5,4,1.5,5.7c1,1.7,2.3,3,3.9,4C441.8-73.9,443.5-73.4,445.4-73.4z"/>
		<path d="M486.4-61.9c-3.6,0-6.6-1.1-9-3.3c-2.4-2.2-3.7-5.1-3.8-8.6v-29.7h12.7v25c0.1,1.8,0.6,3.2,1.4,4.2c0.8,1.1,2.1,1.6,4,1.6
			c1.9,0,3.5-0.6,4.9-1.9s2.4-3,3.2-5.2c0.8-2.2,1.1-4.7,1.1-7.5v-16.2h12.7v39.7H502l-1-7.3l0.2,0.8c-0.9,1.6-2.1,3.1-3.5,4.4
			c-1.4,1.3-3,2.3-5,3C490.9-62.3,488.7-61.9,486.4-61.9z"/>
	</g>
</g>
<g>
	<path class="st2" d="M484.5,65.6c-3.7-3.3-8.3-5-14-5c-4.2,0-8.1,1-11.5,2.9c-3.5,1.9-6.2,4.5-8.3,7.7c-2.1,3.2-3.1,6.8-3.1,10.8
		c0,4.2,0.9,7.9,2.6,11.1c1.8,3.2,4.3,5.7,7.7,7.5s7.5,2.7,12.3,2.7c2.2,0,4.5-0.4,6.9-1.1s4.7-1.7,6.9-2.9l-5.6-9.4
		c-1.3,0.8-2.6,1.4-3.9,1.9c-1.3,0.5-2.6,0.7-4,0.7c-1.9,0-3.7-0.4-5.3-1.3c-1-0.5-1.9-1.3-2.6-2.1l27.1-8.6c0.1-2,0.3-3.8,0.8-5.5
		C489.1,71.2,487.2,68,484.5,65.6z M461.3,75.6c0.8-1.6,1.8-2.8,3.3-3.7c1.4-0.9,3.1-1.3,5-1.3c2.5,0,4.3,0.6,5.6,1.8
		c1.2,1.1,2,2.4,2.5,3.9l-17.4,5.9c0-0.3,0-0.5,0-0.8C460.1,79.1,460.5,77.2,461.3,75.6z"/>
	<path class="st2" d="M523.7,65.4c-1.6-1.6-3.5-2.8-5.9-3.6c-2.3-0.8-4.8-1.2-7.3-1.2c-4,0-7.6,0.8-10.7,2.5c-3.1,1.6-5.6,4-7.4,7.2
		c-0.9,1.5-1.5,3.1-1.9,4.9c0.5,1.5,0.9,3.1,1.2,4.9l-2,0.6c0,0.4,0,0.7,0,1.1c0,4.5,0.8,8.4,2.5,11.6c1.7,3.3,4,5.8,6.9,7.5
		c2.9,1.7,6.2,2.6,9.9,2.6c3.3,0,6.3-0.6,8.8-1.8c2.1-1,4.1-2.2,5.9-3.5v4.2h12.7V30.6h-12.6V65.4z M521,90c-1,0.9-2.2,1.5-3.5,2
		c-1.3,0.5-2.8,0.7-4.5,0.7c-1.9,0-3.6-0.5-5.2-1.5c-1.6-1-2.9-2.3-3.9-4c-1-1.7-1.5-3.6-1.5-5.7c0-2.1,0.5-4,1.5-5.6
		c1-1.6,2.3-2.9,3.9-3.9c1.6-0.9,3.3-1.4,5.2-1.4c1.7,0,3.3,0.3,4.7,0.8c1.4,0.5,2.6,1.2,3.6,2.2c1,0.9,1.7,2.1,2.2,3.4v9.7
		C522.9,88,522,89.1,521,90z"/>
	<path class="st2" d="M568.5,62.6v16.2c0,2.8-0.4,5.3-1.1,7.5c-0.8,2.2-1.8,4-3.2,5.2s-3,1.9-4.9,1.9c-1.9,0-3.2-0.5-4-1.6
		c-0.8-1.1-1.2-2.5-1.4-4.2v-25h-12.7v29.7c0.1,3.5,1.4,6.4,3.8,8.6c2.4,2.2,5.4,3.3,9,3.3c2.4,0,4.5-0.3,6.4-1c1.9-0.7,3.6-1.7,5-3
		c1.4-1.2,2.5-2.7,3.4-4.3l0.9,6.4h7.5V62.6H568.5z"/>
	<path class="st2" d="M645.4,76.2c-0.5-1.5-1.3-2.8-2.5-3.9c-1.2-1.2-3.1-1.8-5.6-1.8c-1.9,0-3.5,0.4-5,1.3
		c-1.4,0.9-2.5,2.1-3.3,3.7c-0.8,1.6-1.1,3.5-1.1,5.7c0,0.3,0,0.5,0,0.8L645.4,76.2z"/>
	<path class="st2" d="M577.2,17.4v45.1h4v39.7h-4v15.1h138V17.4H577.2z M633.1,91.3c1.6,0.8,3.3,1.3,5.3,1.3c1.4,0,2.7-0.2,4-0.7
		c1.3-0.5,2.6-1.1,3.9-1.9l5.6,9.4c-2.1,1.2-4.4,2.2-6.9,2.9c-2.5,0.7-4.8,1.1-6.9,1.1c-4.8,0-8.9-0.9-12.3-2.7s-5.9-4.3-7.7-7.5
		c-1-1.8-1.7-3.8-2.1-6c0.1,0.6,0.1,1.2,0.1,1.9c0,2.4-0.6,4.7-1.9,6.9c-1.2,2.2-3.1,3.9-5.6,5.2c-2.5,1.3-5.7,2-9.6,2
		c-3.3,0-6.3-0.6-9.1-1.7c-2.8-1.1-5.2-2.8-7.1-4.8l5.3-7c1.9,1.8,3.7,3,5.4,3.8c1.7,0.8,3.2,1.1,4.5,1.1c1,0,2-0.1,2.8-0.3
		c0.8-0.2,1.5-0.5,2-1c0.5-0.5,0.7-1,0.7-1.8c0-1-0.4-1.8-1.2-2.5c-0.8-0.6-1.9-1.1-3.1-1.5c-1.3-0.4-2.6-0.8-4.1-1.2
		c-3.6-1.1-6.3-2.8-7.9-5c-1.6-2.2-2.4-4.6-2.4-7.2c0-2,0.5-4,1.6-6c1.1-2,2.8-3.7,5.1-5.1c2.3-1.4,5.3-2,9-2c3.3,0,6.1,0.3,8.4,1
		c2.3,0.7,4.5,1.8,6.5,3.3l-4.8,7.4c-1.2-0.9-2.4-1.7-3.9-2.3c-1.4-0.6-2.7-1-4-1c-1.1-0.1-2,0.1-2.8,0.4c-0.8,0.3-1.3,0.7-1.8,1.2
		c-0.4,0.5-0.6,1-0.6,1.5c-0.1,1.2,0.4,2.1,1.3,2.7c0.9,0.7,2.1,1.2,3.6,1.5s2.9,0.8,4.3,1.3c1.9,0.6,3.6,1.4,5,2.5
		c1.4,1,2.5,2.3,3.2,3.7c0.4,0.7,0.6,1.4,0.8,2.2c-0.2-1.3-0.3-2.6-0.3-4.1c0-4,1-7.6,3.1-10.8c2.1-3.2,4.8-5.8,8.3-7.7
		c3.5-1.9,7.3-2.9,11.5-2.9c5.7,0,10.4,1.7,14,5c3.7,3.3,6,8.1,7.1,14.3l-29,9.2C631.2,90,632.1,90.7,633.1,91.3z M701.5,102.3
		h-12.7v-25c-0.1-1.8-0.5-3.2-1.4-4.2c-0.9-1.1-2.3-1.6-4.4-1.6c-1.9,0-3.6,0.6-5.1,1.9c-1.5,1.3-2.6,3-3.4,5.2
		c-0.8,2.2-1.2,4.7-1.2,7.5v16.2h-12.7V62.6h11.5l0.9,6.3c1.4-2.4,3.3-4.4,5.8-5.9c2.5-1.5,5.7-2.3,9.4-2.3c3.8,0,6.9,1.1,9.4,3.3
		c2.5,2.2,3.8,5.1,3.9,8.6V102.3z"/>
	<path class="st2" d="M616,87.1c-0.1-0.4-0.1-0.7-0.2-1C615.8,86.4,615.9,86.8,616,87.1z"/>
</g>
<rect x="582.2" y="22.4" class="st3" width="21" height="21"/>
<rect x="609" y="22.4" class="st4" width="21" height="21"/>
<rect x="636.2" y="22.4" class="st5" width="21" height="21"/>
<rect x="663" y="22.4" class="st6" width="21" height="21"/>
<rect x="689.2" y="22.4" class="st7" width="21" height="21"/>
<rect x="582.2" y="22.4" class="st8" width="21" height="21"/>
<rect x="609" y="22.4" class="st8" width="21" height="21"/>
<rect x="636.2" y="22.4" class="st8" width="21" height="21"/>
<rect x="663" y="22.4" class="st8" width="21" height="21"/>
<rect x="689.2" y="22.4" class="st8" width="21" height="21"/>
<g>
	<g>
		<path class="st9" d="M42.1,298.3c-3.7-3.3-8.3-5-14-5c-4.2,0-8.1,1-11.5,2.9c-3.5,1.9-6.2,4.5-8.3,7.7c-2.1,3.2-3.1,6.8-3.1,10.8
			c0,4.2,0.9,7.9,2.6,11.1c1.8,3.2,4.3,5.7,7.7,7.5s7.5,2.7,12.3,2.7c2.2,0,4.5-0.4,6.9-1.1s4.7-1.7,6.9-2.9l-5.6-9.4
			c-1.3,0.8-2.6,1.4-3.9,1.9c-1.3,0.5-2.6,0.7-4,0.7c-1.9,0-3.7-0.4-5.3-1.3c-1-0.5-1.9-1.3-2.6-2.1l27.1-8.6c0.1-2,0.3-3.8,0.8-5.5
			C46.7,303.9,44.7,300.7,42.1,298.3z M18.8,308.3c0.8-1.6,1.8-2.8,3.3-3.7c1.4-0.9,3.1-1.3,5-1.3c2.5,0,4.3,0.6,5.6,1.8
			c1.2,1.1,2,2.4,2.5,3.9l-17.4,5.9c0-0.3,0-0.5,0-0.8C17.7,311.8,18.1,309.9,18.8,308.3z"/>
		<path class="st9" d="M81.3,298.1c-1.6-1.6-3.5-2.8-5.9-3.6c-2.3-0.8-4.8-1.2-7.3-1.2c-4,0-7.6,0.8-10.7,2.5
			c-3.1,1.6-5.6,4-7.4,7.2c-0.9,1.5-1.5,3.1-1.9,4.9c0.5,1.5,0.9,3.1,1.2,4.9l-2,0.6c0,0.4,0,0.7,0,1.1c0,4.5,0.8,8.4,2.5,11.6
			c1.7,3.3,4,5.8,6.9,7.5c2.9,1.7,6.2,2.6,9.9,2.6c3.3,0,6.3-0.6,8.8-1.8c2.1-1,4.1-2.2,5.9-3.5v4.2h12.7v-71.7H81.3V298.1z
			 M78.6,322.7c-1,0.9-2.2,1.5-3.5,2c-1.3,0.5-2.8,0.7-4.5,0.7c-1.9,0-3.6-0.5-5.2-1.5c-1.6-1-2.9-2.3-3.9-4c-1-1.7-1.5-3.6-1.5-5.7
			c0-2.1,0.5-4,1.5-5.6c1-1.6,2.3-2.9,3.9-3.9c1.6-0.9,3.3-1.4,5.2-1.4c1.7,0,3.3,0.3,4.7,0.8c1.4,0.5,2.6,1.2,3.6,2.2
			c1,0.9,1.7,2.1,2.2,3.4v9.7C80.5,320.7,79.6,321.8,78.6,322.7z"/>
		<path class="st9" d="M126.1,295.3v16.2c0,2.8-0.4,5.3-1.1,7.5c-0.8,2.2-1.8,4-3.2,5.2s-3,1.9-4.9,1.9c-1.9,0-3.2-0.5-4-1.6
			c-0.8-1.1-1.2-2.5-1.4-4.2v-25H98.8V325c0.1,3.5,1.4,6.4,3.8,8.6c2.4,2.2,5.4,3.3,9,3.3c2.4,0,4.5-0.3,6.4-1c1.9-0.7,3.6-1.7,5-3
			c1.4-1.2,2.5-2.7,3.4-4.3l0.9,6.4h7.5v-39.7H126.1z"/>
		<path class="st9" d="M203,308.9c-0.5-1.5-1.3-2.8-2.5-3.9c-1.2-1.2-3.1-1.8-5.6-1.8c-1.9,0-3.5,0.4-5,1.3
			c-1.4,0.9-2.5,2.1-3.3,3.7c-0.8,1.6-1.1,3.5-1.1,5.7c0,0.3,0,0.5,0,0.8L203,308.9z"/>
		<path class="st9" d="M134.8,250.1v45.1h4V335h-4v15.1h138v-99.9H134.8z M190.7,324c1.6,0.8,3.3,1.3,5.3,1.3c1.4,0,2.7-0.2,4-0.7
			c1.3-0.5,2.6-1.1,3.9-1.9l5.6,9.4c-2.1,1.2-4.4,2.2-6.9,2.9c-2.5,0.7-4.8,1.1-6.9,1.1c-4.8,0-8.9-0.9-12.3-2.7s-5.9-4.3-7.7-7.5
			c-1-1.8-1.7-3.8-2.1-6c0.1,0.6,0.1,1.2,0.1,1.9c0,2.4-0.6,4.7-1.9,6.9c-1.2,2.2-3.1,3.9-5.6,5.2c-2.5,1.3-5.7,2-9.6,2
			c-3.3,0-6.3-0.6-9.1-1.7c-2.8-1.1-5.2-2.8-7.1-4.8l5.3-7c1.9,1.8,3.7,3,5.4,3.8c1.7,0.8,3.2,1.1,4.5,1.1c1,0,2-0.1,2.8-0.3
			c0.8-0.2,1.5-0.5,2-1c0.5-0.5,0.7-1,0.7-1.8c0-1-0.4-1.8-1.2-2.5c-0.8-0.6-1.9-1.1-3.1-1.5c-1.3-0.4-2.6-0.8-4.1-1.2
			c-3.6-1.1-6.3-2.8-7.9-5c-1.6-2.2-2.4-4.6-2.4-7.2c0-2,0.5-4,1.6-6c1.1-2,2.8-3.7,5.1-5.1c2.3-1.4,5.3-2,9-2c3.3,0,6.1,0.3,8.4,1
			c2.3,0.7,4.5,1.8,6.5,3.3l-4.8,7.4c-1.2-0.9-2.4-1.7-3.9-2.3c-1.4-0.6-2.7-1-4-1c-1.1-0.1-2,0.1-2.8,0.4c-0.8,0.3-1.3,0.7-1.8,1.2
			c-0.4,0.5-0.6,1-0.6,1.5c-0.1,1.2,0.4,2.1,1.3,2.7c0.9,0.7,2.1,1.2,3.6,1.5s2.9,0.8,4.3,1.3c1.9,0.6,3.6,1.4,5,2.5
			c1.4,1,2.5,2.3,3.2,3.7c0.4,0.7,0.6,1.4,0.8,2.2c-0.2-1.3-0.3-2.6-0.3-4.1c0-4,1-7.6,3.1-10.8c2.1-3.2,4.8-5.8,8.3-7.7
			c3.5-1.9,7.3-2.9,11.5-2.9c5.7,0,10.4,1.7,14,5c3.7,3.3,6,8.1,7.1,14.3l-29,9.2C188.8,322.7,189.7,323.4,190.7,324z M259.1,335
			h-12.7v-25c-0.1-1.8-0.5-3.2-1.4-4.2c-0.9-1.1-2.3-1.6-4.4-1.6c-1.9,0-3.6,0.6-5.1,1.9c-1.5,1.3-2.6,3-3.4,5.2
			c-0.8,2.2-1.2,4.7-1.2,7.5V335h-12.7v-39.7h11.5l0.9,6.3c1.4-2.4,3.3-4.4,5.8-5.9c2.5-1.5,5.7-2.3,9.4-2.3c3.8,0,6.9,1.1,9.4,3.3
			c2.5,2.2,3.8,5.1,3.9,8.6V335z"/>
		<path class="st9" d="M173.6,319.8c-0.1-0.4-0.1-0.7-0.2-1C173.4,319.1,173.5,319.5,173.6,319.8z"/>
	</g>
	<rect x="139.8" y="255.1" class="st3" width="21" height="21"/>
	<rect x="166.6" y="255.1" class="st4" width="21" height="21"/>
	<rect x="193.8" y="255.1" class="st5" width="21" height="21"/>
	<rect x="220.6" y="255.1" class="st6" width="21" height="21"/>
	<rect x="246.8" y="255.1" class="st7" width="21" height="21"/>
	<rect x="139.8" y="255.1" class="st8" width="21" height="21"/>
	<rect x="166.6" y="255.1" class="st8" width="21" height="21"/>
	<rect x="193.8" y="255.1" class="st8" width="21" height="21"/>
	<rect x="220.6" y="255.1" class="st8" width="21" height="21"/>
	<rect x="246.8" y="255.1" class="st8" width="21" height="21"/>
</g>
<rect y="124.3" class="st2" width="280.1" height="112.3"/>
<g>
	<path class="st9" d="M42.1,179.2c-3.7-3.3-8.3-5-14-5c-4.2,0-8.1,1-11.5,2.9c-3.5,1.9-6.2,4.5-8.3,7.7c-2.1,3.2-3.1,6.8-3.1,10.8
		c0,4.2,0.9,7.9,2.6,11.1c1.8,3.2,4.3,5.7,7.7,7.5s7.5,2.7,12.3,2.7c2.2,0,4.5-0.4,6.9-1.1s4.7-1.7,6.9-2.9l-5.6-9.4
		c-1.3,0.8-2.6,1.4-3.9,1.9c-1.3,0.5-2.6,0.7-4,0.7c-1.9,0-3.7-0.4-5.3-1.3c-1-0.5-1.9-1.3-2.6-2.1l27.1-8.6c0.1-2,0.3-3.8,0.8-5.5
		C46.7,184.7,44.7,181.6,42.1,179.2z M18.8,189.2c0.8-1.6,1.8-2.8,3.3-3.7c1.4-0.9,3.1-1.3,5-1.3c2.5,0,4.3,0.6,5.6,1.8
		c1.2,1.1,2,2.4,2.5,3.9l-17.4,5.9c0-0.3,0-0.5,0-0.8C17.7,192.7,18.1,190.8,18.8,189.2z"/>
	<path class="st9" d="M81.3,178.9c-1.6-1.6-3.5-2.8-5.9-3.6c-2.3-0.8-4.8-1.2-7.3-1.2c-4,0-7.6,0.8-10.7,2.5c-3.1,1.6-5.6,4-7.4,7.2
		c-0.9,1.5-1.5,3.1-1.9,4.9c0.5,1.5,0.9,3.1,1.2,4.9l-2,0.6c0,0.4,0,0.7,0,1.1c0,4.5,0.8,8.4,2.5,11.6c1.7,3.3,4,5.8,6.9,7.5
		c2.9,1.7,6.2,2.6,9.9,2.6c3.3,0,6.3-0.6,8.8-1.8c2.1-1,4.1-2.2,5.9-3.5v4.2h12.7v-71.7H81.3V178.9z M78.6,203.5
		c-1,0.9-2.2,1.5-3.5,2c-1.3,0.5-2.8,0.7-4.5,0.7c-1.9,0-3.6-0.5-5.2-1.5c-1.6-1-2.9-2.3-3.9-4c-1-1.7-1.5-3.6-1.5-5.7
		c0-2.1,0.5-4,1.5-5.6c1-1.6,2.3-2.9,3.9-3.9c1.6-0.9,3.3-1.4,5.2-1.4c1.7,0,3.3,0.3,4.7,0.8c1.4,0.5,2.6,1.2,3.6,2.2
		c1,0.9,1.7,2.1,2.2,3.4v9.7C80.5,201.5,79.6,202.6,78.6,203.5z"/>
	<path class="st9" d="M126.1,176.1v16.2c0,2.8-0.4,5.3-1.1,7.5c-0.8,2.2-1.8,4-3.2,5.2s-3,1.9-4.9,1.9c-1.9,0-3.2-0.5-4-1.6
		c-0.8-1.1-1.2-2.5-1.4-4.2v-25H98.8v29.7c0.1,3.5,1.4,6.4,3.8,8.6c2.4,2.2,5.4,3.3,9,3.3c2.4,0,4.5-0.3,6.4-1c1.9-0.7,3.6-1.7,5-3
		c1.4-1.2,2.5-2.7,3.4-4.3l0.9,6.4h7.5v-39.7H126.1z"/>
	<path class="st9" d="M203,189.8c-0.5-1.5-1.3-2.8-2.5-3.9c-1.2-1.2-3.1-1.8-5.6-1.8c-1.9,0-3.5,0.4-5,1.3c-1.4,0.9-2.5,2.1-3.3,3.7
		c-0.8,1.6-1.1,3.5-1.1,5.7c0,0.3,0,0.5,0,0.8L203,189.8z"/>
	<path class="st9" d="M134.8,131v45.1h4v39.7h-4v15.1h138V131H134.8z M190.7,204.8c1.6,0.8,3.3,1.3,5.3,1.3c1.4,0,2.7-0.2,4-0.7
		c1.3-0.5,2.6-1.1,3.9-1.9l5.6,9.4c-2.1,1.2-4.4,2.2-6.9,2.9c-2.5,0.7-4.8,1.1-6.9,1.1c-4.8,0-8.9-0.9-12.3-2.7s-5.9-4.3-7.7-7.5
		c-1-1.8-1.7-3.8-2.1-6c0.1,0.6,0.1,1.2,0.1,1.9c0,2.4-0.6,4.7-1.9,6.9c-1.2,2.2-3.1,3.9-5.6,5.2c-2.5,1.3-5.7,2-9.6,2
		c-3.3,0-6.3-0.6-9.1-1.7c-2.8-1.1-5.2-2.8-7.1-4.8l5.3-7c1.9,1.8,3.7,3,5.4,3.8c1.7,0.8,3.2,1.1,4.5,1.1c1,0,2-0.1,2.8-0.3
		c0.8-0.2,1.5-0.5,2-1c0.5-0.5,0.7-1,0.7-1.8c0-1-0.4-1.8-1.2-2.5c-0.8-0.6-1.9-1.1-3.1-1.5c-1.3-0.4-2.6-0.8-4.1-1.2
		c-3.6-1.1-6.3-2.8-7.9-5c-1.6-2.2-2.4-4.6-2.4-7.2c0-2,0.5-4,1.6-6c1.1-2,2.8-3.7,5.1-5.1c2.3-1.4,5.3-2,9-2c3.3,0,6.1,0.3,8.4,1
		c2.3,0.7,4.5,1.8,6.5,3.3l-4.8,7.4c-1.2-0.9-2.4-1.7-3.9-2.3c-1.4-0.6-2.7-1-4-1c-1.1-0.1-2,0.1-2.8,0.4c-0.8,0.3-1.3,0.7-1.8,1.2
		c-0.4,0.5-0.6,1-0.6,1.5c-0.1,1.2,0.4,2.1,1.3,2.7c0.9,0.7,2.1,1.2,3.6,1.5s2.9,0.8,4.3,1.3c1.9,0.6,3.6,1.4,5,2.5
		c1.4,1,2.5,2.3,3.2,3.7c0.4,0.7,0.6,1.4,0.8,2.2c-0.2-1.3-0.3-2.6-0.3-4.1c0-4,1-7.6,3.1-10.8c2.1-3.2,4.8-5.8,8.3-7.7
		c3.5-1.9,7.3-2.9,11.5-2.9c5.7,0,10.4,1.7,14,5c3.7,3.3,6,8.1,7.1,14.3l-29,9.2C188.8,203.6,189.7,204.3,190.7,204.8z M259.1,215.8
		h-12.7v-25c-0.1-1.8-0.5-3.2-1.4-4.2c-0.9-1.1-2.3-1.6-4.4-1.6c-1.9,0-3.6,0.6-5.1,1.9c-1.5,1.3-2.6,3-3.4,5.2
		c-0.8,2.2-1.2,4.7-1.2,7.5v16.2h-12.7v-39.7h11.5l0.9,6.3c1.4-2.4,3.3-4.4,5.8-5.9c2.5-1.5,5.7-2.3,9.4-2.3c3.8,0,6.9,1.1,9.4,3.3
		c2.5,2.2,3.8,5.1,3.9,8.6V215.8z"/>
	<path class="st9" d="M173.6,200.7c-0.1-0.4-0.1-0.7-0.2-1C173.4,200,173.5,200.3,173.6,200.7z"/>
</g>
<rect x="139.8" y="136" class="st3" width="21" height="21"/>
<rect x="166.6" y="136" class="st4" width="21" height="21"/>
<rect x="193.8" y="136" class="st5" width="21" height="21"/>
<rect x="220.6" y="136" class="st6" width="21" height="21"/>
<rect x="246.8" y="136" class="st7" width="21" height="21"/>
<rect x="139.8" y="136" class="st8" width="21" height="21"/>
<rect x="166.6" y="136" class="st8" width="21" height="21"/>
<rect x="193.8" y="136" class="st8" width="21" height="21"/>
<rect x="220.6" y="136" class="st8" width="21" height="21"/>
<rect x="246.8" y="136" class="st8" width="21" height="21"/>
<g>
	<path class="st2" d="M42.1,54.9c-3.7-3.3-8.3-5-14-5c-4.2,0-8.1,1-11.5,2.9c-3.5,1.9-6.2,4.5-8.3,7.7c-2.1,3.2-3.1,6.8-3.1,10.8
		c0,4.2,0.9,7.9,2.6,11.1c1.8,3.2,4.3,5.7,7.7,7.5s7.5,2.7,12.3,2.7c2.2,0,4.5-0.4,6.9-1.1s4.7-1.7,6.9-2.9L36,79.2
		c-1.3,0.8-2.6,1.4-3.9,1.9c-1.3,0.5-2.6,0.7-4,0.7c-1.9,0-3.7-0.4-5.3-1.3c-1-0.5-1.9-1.3-2.6-2.1l27.1-8.6c0.1-2,0.3-3.8,0.8-5.5
		C46.7,60.5,44.7,57.3,42.1,54.9z M18.8,64.9c0.8-1.6,1.8-2.8,3.3-3.7c1.4-0.9,3.1-1.3,5-1.3c2.5,0,4.3,0.6,5.6,1.8
		c1.2,1.1,2,2.4,2.5,3.9l-17.4,5.9c0-0.3,0-0.5,0-0.8C17.7,68.4,18.1,66.5,18.8,64.9z"/>
	<path class="st2" d="M81.3,54.7c-1.6-1.6-3.5-2.8-5.9-3.6c-2.3-0.8-4.8-1.2-7.3-1.2c-4,0-7.6,0.8-10.7,2.5c-3.1,1.6-5.6,4-7.4,7.2
		c-0.9,1.5-1.5,3.1-1.9,4.9c0.5,1.5,0.9,3.1,1.2,4.9l-2,0.6c0,0.4,0,0.7,0,1.1c0,4.5,0.8,8.4,2.5,11.6c1.7,3.3,4,5.8,6.9,7.5
		c2.9,1.7,6.2,2.6,9.9,2.6c3.3,0,6.3-0.6,8.8-1.8c2.1-1,4.1-2.2,5.9-3.5v4.2h12.7V19.9H81.3V54.7z M78.6,79.3c-1,0.9-2.2,1.5-3.5,2
		c-1.3,0.5-2.8,0.7-4.5,0.7c-1.9,0-3.6-0.5-5.2-1.5c-1.6-1-2.9-2.3-3.9-4c-1-1.7-1.5-3.6-1.5-5.7c0-2.1,0.5-4,1.5-5.6
		c1-1.6,2.3-2.9,3.9-3.9c1.6-0.9,3.3-1.4,5.2-1.4c1.7,0,3.3,0.3,4.7,0.8c1.4,0.5,2.6,1.2,3.6,2.2c1,0.9,1.7,2.1,2.2,3.4V76
		C80.5,77.3,79.6,78.4,78.6,79.3z"/>
	<path class="st2" d="M126.1,51.9v16.2c0,2.8-0.4,5.3-1.1,7.5c-0.8,2.2-1.8,4-3.2,5.2s-3,1.9-4.9,1.9c-1.9,0-3.2-0.5-4-1.6
		c-0.8-1.1-1.2-2.5-1.4-4.2v-25H98.8v29.7c0.1,3.5,1.4,6.4,3.8,8.6c2.4,2.2,5.4,3.3,9,3.3c2.4,0,4.5-0.3,6.4-1c1.9-0.7,3.6-1.7,5-3
		c1.4-1.2,2.5-2.7,3.4-4.3l0.9,6.4h7.5V51.9H126.1z"/>
	<path class="st2" d="M203,65.5c-0.5-1.5-1.3-2.8-2.5-3.9c-1.2-1.2-3.1-1.8-5.6-1.8c-1.9,0-3.5,0.4-5,1.3c-1.4,0.9-2.5,2.1-3.3,3.7
		c-0.8,1.6-1.1,3.5-1.1,5.7c0,0.3,0,0.5,0,0.8L203,65.5z"/>
	<path class="st2" d="M134.8,6.7v45.1h4v39.7h-4v15.1h138V6.7H134.8z M190.7,80.6c1.6,0.8,3.3,1.3,5.3,1.3c1.4,0,2.7-0.2,4-0.7
		c1.3-0.5,2.6-1.1,3.9-1.9l5.6,9.4c-2.1,1.2-4.4,2.2-6.9,2.9c-2.5,0.7-4.8,1.1-6.9,1.1c-4.8,0-8.9-0.9-12.3-2.7s-5.9-4.3-7.7-7.5
		c-1-1.8-1.7-3.8-2.1-6c0.1,0.6,0.1,1.2,0.1,1.9c0,2.4-0.6,4.7-1.9,6.9c-1.2,2.2-3.1,3.9-5.6,5.2c-2.5,1.3-5.7,2-9.6,2
		c-3.3,0-6.3-0.6-9.1-1.7c-2.8-1.1-5.2-2.8-7.1-4.8l5.3-7c1.9,1.8,3.7,3,5.4,3.8c1.7,0.8,3.2,1.1,4.5,1.1c1,0,2-0.1,2.8-0.3
		c0.8-0.2,1.5-0.5,2-1c0.5-0.5,0.7-1,0.7-1.8c0-1-0.4-1.8-1.2-2.5c-0.8-0.6-1.9-1.1-3.1-1.5c-1.3-0.4-2.6-0.8-4.1-1.2
		c-3.6-1.1-6.3-2.8-7.9-5c-1.6-2.2-2.4-4.6-2.4-7.2c0-2,0.5-4,1.6-6c1.1-2,2.8-3.7,5.1-5.1c2.3-1.4,5.3-2,9-2c3.3,0,6.1,0.3,8.4,1
		c2.3,0.7,4.5,1.8,6.5,3.3l-4.8,7.4c-1.2-0.9-2.4-1.7-3.9-2.3c-1.4-0.6-2.7-1-4-1c-1.1-0.1-2,0.1-2.8,0.4c-0.8,0.3-1.3,0.7-1.8,1.2
		c-0.4,0.5-0.6,1-0.6,1.5c-0.1,1.2,0.4,2.1,1.3,2.7c0.9,0.7,2.1,1.2,3.6,1.5s2.9,0.8,4.3,1.3c1.9,0.6,3.6,1.4,5,2.5
		c1.4,1,2.5,2.3,3.2,3.7c0.4,0.7,0.6,1.4,0.8,2.2c-0.2-1.3-0.3-2.6-0.3-4.1c0-4,1-7.6,3.1-10.8c2.1-3.2,4.8-5.8,8.3-7.7
		c3.5-1.9,7.3-2.9,11.5-2.9c5.7,0,10.4,1.7,14,5c3.7,3.3,6,8.1,7.1,14.3l-29,9.2C188.8,79.3,189.7,80.1,190.7,80.6z M259.1,91.6
		h-12.7v-25c-0.1-1.8-0.5-3.2-1.4-4.2c-0.9-1.1-2.3-1.6-4.4-1.6c-1.9,0-3.6,0.6-5.1,1.9c-1.5,1.3-2.6,3-3.4,5.2
		c-0.8,2.2-1.2,4.7-1.2,7.5v16.2h-12.7V51.9h11.5l0.9,6.3c1.4-2.4,3.3-4.4,5.8-5.9c2.5-1.5,5.7-2.3,9.4-2.3c3.8,0,6.9,1.1,9.4,3.3
		c2.5,2.2,3.8,5.1,3.9,8.6V91.6z"/>
	<path class="st2" d="M173.6,76.4c-0.1-0.4-0.1-0.7-0.2-1C173.4,75.7,173.5,76.1,173.6,76.4z"/>
</g>
<rect x="139.8" y="11.7" class="st3" width="21" height="21"/>
<rect x="166.6" y="11.7" class="st4" width="21" height="21"/>
<rect x="193.8" y="11.7" class="st5" width="21" height="21"/>
<rect x="220.6" y="11.7" class="st6" width="21" height="21"/>
<rect x="246.8" y="11.7" class="st7" width="21" height="21"/>
<rect x="139.8" y="11.7" class="st8" width="21" height="21"/>
<rect x="166.6" y="11.7" class="st8" width="21" height="21"/>
<rect x="193.8" y="11.7" class="st8" width="21" height="21"/>
<rect x="220.6" y="11.7" class="st8" width="21" height="21"/>
<rect x="246.8" y="11.7" class="st8" width="21" height="21"/>
<rect x="-565.8" y="-178.6" class="st1" width="513.9" height="318.7"/>
<g>
	<g>
		<path class="st2" d="M-154.7-10.4c-0.5-1.5-1.3-2.8-2.5-3.9c-1.2-1.2-3.1-1.8-5.6-1.8c-1.9,0-3.5,0.4-5,1.3
			c-1.4,0.9-2.5,2.1-3.3,3.7c-0.8,1.6-1.1,3.5-1.1,5.7c0,0.3,0,0.5,0,0.8L-154.7-10.4z"/>
		<path class="st2" d="M-223.7-69.7v99.9h138v-99.9H-223.7z M-167,4.6c1.6,0.8,3.3,1.3,5.3,1.3c1.4,0,2.7-0.2,4-0.7
			c1.3-0.5,2.6-1.1,3.9-1.9l5.6,9.4c-2.1,1.2-4.4,2.2-6.9,2.9s-4.8,1.1-6.9,1.1c-4.8,0-8.9-0.9-12.3-2.7s-5.9-4.3-7.7-7.5
			c-1-1.8-1.7-3.8-2.1-6c0.1,0.6,0.1,1.2,0.1,1.9c0,2.4-0.6,4.7-1.9,6.9c-1.2,2.2-3.1,3.9-5.6,5.2c-2.5,1.3-5.7,2-9.6,2
			c-3.3,0-6.3-0.6-9.1-1.7c-2.8-1.1-5.2-2.8-7.1-4.8l5.3-7c1.9,1.8,3.7,3,5.4,3.8c1.7,0.8,3.2,1.1,4.5,1.1c1,0,2-0.1,2.8-0.3
			c0.8-0.2,1.5-0.5,2-1c0.5-0.5,0.7-1,0.7-1.8c0-1-0.4-1.8-1.2-2.5c-0.8-0.6-1.9-1.1-3.1-1.5c-1.3-0.4-2.6-0.8-4.1-1.2
			c-3.6-1.1-6.3-2.8-7.9-5c-1.6-2.2-2.4-4.6-2.4-7.2c0-2,0.5-4,1.6-6c1.1-2,2.8-3.7,5.1-5.1c2.3-1.4,5.3-2,9-2c3.3,0,6.1,0.3,8.4,1
			c2.3,0.7,4.5,1.8,6.5,3.3l-4.8,7.4c-1.2-0.9-2.4-1.7-3.9-2.3c-1.4-0.6-2.7-1-4-1c-1.1-0.1-2,0.1-2.8,0.4c-0.8,0.3-1.3,0.7-1.8,1.2
			c-0.4,0.5-0.6,1-0.6,1.5c-0.1,1.2,0.4,2.1,1.3,2.7c0.9,0.7,2.1,1.2,3.6,1.5s2.9,0.8,4.3,1.3c1.9,0.6,3.6,1.4,5,2.5
			c1.4,1,2.5,2.3,3.2,3.7c0.4,0.7,0.6,1.4,0.8,2.2c-0.2-1.3-0.3-2.6-0.3-4.1c0-4,1-7.6,3.1-10.8c2.1-3.2,4.8-5.8,8.3-7.7
			c3.5-1.9,7.3-2.9,11.5-2.9c5.7,0,10.4,1.7,14,5c3.7,3.3,6,8.1,7.1,14.3l-29,9.2C-168.9,3.4-168,4.1-167,4.6z M-98.6,15.6h-12.7
			v-25c-0.1-1.8-0.5-3.2-1.4-4.2c-0.9-1.1-2.3-1.6-4.4-1.6c-1.9,0-3.6,0.6-5.1,1.9c-1.5,1.3-2.6,3-3.4,5.2c-0.8,2.2-1.2,4.7-1.2,7.5
			v16.2h-12.7v-39.7h11.5l0.9,6.3c1.4-2.4,3.3-4.4,5.8-5.9c2.5-1.5,5.7-2.3,9.4-2.3c3.8,0,6.9,1.1,9.4,3.3c2.5,2.2,3.8,5.1,3.9,8.6
			V15.6z"/>
		<path class="st2" d="M-184.1,0.5c-0.1-0.4-0.1-0.7-0.2-1C-184.3-0.2-184.2,0.1-184.1,0.5z"/>
	</g>
	<rect x="-218.7" y="-64.7" class="st3" width="21" height="21"/>
	<rect x="-191.9" y="-64.7" class="st4" width="21" height="21"/>
	<rect x="-164.7" y="-64.7" class="st5" width="21" height="21"/>
	<rect x="-137.9" y="-64.7" class="st6" width="21" height="21"/>
	<rect x="-111.7" y="-64.7" class="st7" width="21" height="21"/>
	<rect x="-218.7" y="-64.7" class="st8" width="21" height="21"/>
	<rect x="-191.9" y="-64.7" class="st8" width="21" height="21"/>
	<rect x="-164.7" y="-64.7" class="st8" width="21" height="21"/>
	<rect x="-137.9" y="-64.7" class="st8" width="21" height="21"/>
	<rect x="-111.7" y="-64.7" class="st8" width="21" height="21"/>
</g>
<g>
	<g>
		<path class="st2" d="M140.1-81c-0.5-1.5-1.3-2.8-2.5-3.9c-1.2-1.2-3.1-1.8-5.6-1.8c-1.9,0-3.5,0.4-5,1.3c-1.4,0.9-2.5,2.1-3.3,3.7
			c-0.8,1.6-1.1,3.5-1.1,5.7c0,0.3,0,0.5,0,0.8L140.1-81z"/>
		<path class="st2" d="M71-140.3v99.9h138v-99.9H71z M127.8-65.9c1.6,0.8,3.3,1.3,5.3,1.3c1.4,0,2.7-0.2,4-0.7
			c1.3-0.5,2.6-1.1,3.9-1.9l5.6,9.4c-2.1,1.2-4.4,2.2-6.9,2.9s-4.8,1.1-6.9,1.1c-4.8,0-8.9-0.9-12.3-2.7s-5.9-4.3-7.7-7.5
			c-1-1.8-1.7-3.8-2.1-6c0.1,0.6,0.1,1.2,0.1,1.9c0,2.4-0.6,4.7-1.9,6.9c-1.2,2.2-3.1,3.9-5.6,5.2c-2.5,1.3-5.7,2-9.6,2
			c-3.3,0-6.3-0.6-9.1-1.7c-2.8-1.1-5.2-2.8-7.1-4.8l5.3-7c1.9,1.8,3.7,3,5.4,3.8c1.7,0.8,3.2,1.1,4.5,1.1c1,0,2-0.1,2.8-0.3
			c0.8-0.2,1.5-0.5,2-1c0.5-0.5,0.7-1,0.7-1.8c0-1-0.4-1.8-1.2-2.5c-0.8-0.6-1.9-1.1-3.1-1.5c-1.3-0.4-2.6-0.8-4.1-1.2
			c-3.6-1.1-6.3-2.8-7.9-5c-1.6-2.2-2.4-4.6-2.4-7.2c0-2,0.5-4,1.6-6c1.1-2,2.8-3.7,5.1-5.1c2.3-1.4,5.3-2,9-2c3.3,0,6.1,0.3,8.4,1
			c2.3,0.7,4.5,1.8,6.5,3.3l-4.8,7.4c-1.2-0.9-2.4-1.7-3.9-2.3c-1.4-0.6-2.7-1-4-1c-1.1-0.1-2,0.1-2.8,0.4c-0.8,0.3-1.3,0.7-1.8,1.2
			c-0.4,0.5-0.6,1-0.6,1.5c-0.1,1.2,0.4,2.1,1.3,2.7c0.9,0.7,2.1,1.2,3.6,1.5s2.9,0.8,4.3,1.3c1.9,0.6,3.6,1.4,5,2.5
			c1.4,1,2.5,2.3,3.2,3.7c0.4,0.7,0.6,1.4,0.8,2.2c-0.2-1.3-0.3-2.6-0.3-4.1c0-4,1-7.6,3.1-10.8c2.1-3.2,4.8-5.8,8.3-7.7
			c3.5-1.9,7.3-2.9,11.5-2.9c5.7,0,10.4,1.7,14,5c3.7,3.3,6,8.1,7.1,14.3l-29,9.2C125.9-67.2,126.8-66.5,127.8-65.9z M196.2-55
			h-12.7v-25c-0.1-1.8-0.5-3.2-1.4-4.2c-0.9-1.1-2.3-1.6-4.4-1.6c-1.9,0-3.6,0.6-5.1,1.9c-1.5,1.3-2.6,3-3.4,5.2
			c-0.8,2.2-1.2,4.7-1.2,7.5V-55h-12.7v-39.7h11.5l0.9,6.3c1.4-2.4,3.3-4.4,5.8-5.9c2.5-1.5,5.7-2.3,9.4-2.3c3.8,0,6.9,1.1,9.4,3.3
			c2.5,2.2,3.8,5.1,3.9,8.6V-55z"/>
		<path class="st2" d="M110.6-70.1c-0.1-0.4-0.1-0.7-0.2-1C110.5-70.8,110.6-70.4,110.6-70.1z"/>
	</g>
	<rect x="76" y="-135.3" class="st3" width="21" height="21"/>
	<rect x="102.8" y="-135.3" class="st4" width="21" height="21"/>
	<rect x="130.1" y="-135.3" class="st5" width="21" height="21"/>
	<rect x="156.9" y="-135.3" class="st6" width="21" height="21"/>
	<rect x="183" y="-135.3" class="st7" width="21" height="21"/>
	<rect x="76" y="-135.3" class="st8" width="21" height="21"/>
	<rect x="102.8" y="-135.3" class="st8" width="21" height="21"/>
	<rect x="130.1" y="-135.3" class="st8" width="21" height="21"/>
	<rect x="156.9" y="-135.3" class="st8" width="21" height="21"/>
	<rect x="183" y="-135.3" class="st8" width="21" height="21"/>
</g>
<g>
	<rect x="-528.3" y="-26" class="st10" width="289.1" height="135.2"/>
	<g>
		<g>
			<path class="st9" d="M-480.7,39.9c-3.7-3.3-8.3-5-14-5c-4.2,0-8.1,1-11.5,2.9c-3.5,1.9-6.2,4.5-8.3,7.7
				c-2.1,3.2-3.1,6.8-3.1,10.8c0,4.2,0.9,7.9,2.6,11.1c1.8,3.2,4.3,5.7,7.7,7.5s7.5,2.7,12.3,2.7c2.2,0,4.5-0.4,6.9-1.1
				s4.7-1.7,6.9-2.9l-5.6-9.4c-1.3,0.8-2.6,1.4-3.9,1.9c-1.3,0.5-2.6,0.7-4,0.7c-1.9,0-3.7-0.4-5.3-1.3c-1-0.5-1.9-1.3-2.6-2.1
				l27.1-8.6c0.1-2,0.3-3.8,0.8-5.5C-476,45.4-478,42.3-480.7,39.9z M-503.9,49.9c0.8-1.6,1.8-2.8,3.3-3.7c1.4-0.9,3.1-1.3,5-1.3
				c2.5,0,4.3,0.6,5.6,1.8c1.2,1.1,2,2.4,2.5,3.9l-17.4,5.9c0-0.3,0-0.5,0-0.8C-505,53.4-504.7,51.5-503.9,49.9z"/>
			<path class="st9" d="M-441.5,39.7c-1.6-1.6-3.5-2.8-5.9-3.6c-2.3-0.8-4.8-1.2-7.3-1.2c-4,0-7.6,0.8-10.7,2.5
				c-3.1,1.6-5.6,4-7.4,7.2c-0.9,1.5-1.5,3.1-1.9,4.9c0.5,1.5,0.9,3.1,1.2,4.9l-2,0.6c0,0.4,0,0.7,0,1.1c0,4.5,0.8,8.4,2.5,11.6
				c1.7,3.3,4,5.8,6.9,7.5c2.9,1.7,6.2,2.6,9.9,2.6c3.3,0,6.3-0.6,8.8-1.8c2.1-1,4.1-2.2,5.9-3.5v4.2h12.7V4.9h-12.6V39.7z
				 M-444.1,64.2c-1,0.9-2.2,1.5-3.5,2c-1.3,0.5-2.8,0.7-4.5,0.7c-1.9,0-3.6-0.5-5.2-1.5c-1.6-1-2.9-2.3-3.9-4
				c-1-1.7-1.5-3.6-1.5-5.7c0-2.1,0.5-4,1.5-5.6c1-1.6,2.3-2.9,3.9-3.9c1.6-0.9,3.3-1.4,5.2-1.4c1.7,0,3.3,0.3,4.7,0.8
				c1.4,0.5,2.6,1.2,3.6,2.2c1,0.9,1.7,2.1,2.2,3.4v9.7C-442.3,62.2-443.1,63.3-444.1,64.2z"/>
			<path class="st9" d="M-396.7,36.8V53c0,2.8-0.4,5.3-1.1,7.5c-0.8,2.2-1.8,4-3.2,5.2s-3,1.9-4.9,1.9c-1.9,0-3.2-0.5-4-1.6
				c-0.8-1.1-1.2-2.5-1.4-4.2v-25h-12.7v29.7c0.1,3.5,1.4,6.4,3.8,8.6c2.4,2.2,5.4,3.3,9,3.3c2.4,0,4.5-0.3,6.4-1
				c1.9-0.7,3.6-1.7,5-3c1.4-1.2,2.5-2.7,3.4-4.3l0.9,6.4h7.5V36.8H-396.7z"/>
			<path class="st9" d="M-319.7,50.5c-0.5-1.5-1.3-2.8-2.5-3.9c-1.2-1.2-3.1-1.8-5.6-1.8c-1.9,0-3.5,0.4-5,1.3
				c-1.4,0.9-2.5,2.1-3.3,3.7c-0.8,1.6-1.1,3.5-1.1,5.7c0,0.3,0,0.5,0,0.8L-319.7,50.5z"/>
			<path class="st9" d="M-387.9-8.3v45.1h4v39.7h-4v15.1h138V-8.3H-387.9z M-332.1,65.5c1.6,0.8,3.3,1.3,5.3,1.3
				c1.4,0,2.7-0.2,4-0.7c1.3-0.5,2.6-1.1,3.9-1.9l5.6,9.4c-2.1,1.2-4.4,2.2-6.9,2.9c-2.5,0.7-4.8,1.1-6.9,1.1
				c-4.8,0-8.9-0.9-12.3-2.7s-5.9-4.3-7.7-7.5c-1-1.8-1.7-3.8-2.1-6c0.1,0.6,0.1,1.2,0.1,1.9c0,2.4-0.6,4.7-1.9,6.9
				c-1.2,2.2-3.1,3.9-5.6,5.2c-2.5,1.3-5.7,2-9.6,2c-3.3,0-6.3-0.6-9.1-1.7c-2.8-1.1-5.2-2.8-7.1-4.8l5.3-7c1.9,1.8,3.7,3,5.4,3.8
				c1.7,0.8,3.2,1.1,4.5,1.1c1,0,2-0.1,2.8-0.3c0.8-0.2,1.5-0.5,2-1c0.5-0.5,0.7-1,0.7-1.8c0-1-0.4-1.8-1.2-2.5
				c-0.8-0.6-1.9-1.1-3.1-1.5c-1.3-0.4-2.6-0.8-4.1-1.2c-3.6-1.1-6.3-2.8-7.9-5c-1.6-2.2-2.4-4.6-2.4-7.2c0-2,0.5-4,1.6-6
				c1.1-2,2.8-3.7,5.1-5.1c2.3-1.4,5.3-2,9-2c3.3,0,6.1,0.3,8.4,1c2.3,0.7,4.5,1.8,6.5,3.3l-4.8,7.4c-1.2-0.9-2.4-1.7-3.9-2.3
				c-1.4-0.6-2.7-1-4-1c-1.1-0.1-2,0.1-2.8,0.4c-0.8,0.3-1.3,0.7-1.8,1.2c-0.4,0.5-0.6,1-0.6,1.5c-0.1,1.2,0.4,2.1,1.3,2.7
				c0.9,0.7,2.1,1.2,3.6,1.5s2.9,0.8,4.3,1.3c1.9,0.6,3.6,1.4,5,2.5c1.4,1,2.5,2.3,3.2,3.7c0.4,0.7,0.6,1.4,0.8,2.2
				c-0.2-1.3-0.3-2.6-0.3-4.1c0-4,1-7.6,3.1-10.8c2.1-3.2,4.8-5.8,8.3-7.7c3.5-1.9,7.3-2.9,11.5-2.9c5.7,0,10.4,1.7,14,5
				c3.7,3.3,6,8.1,7.1,14.3l-29,9.2C-333.9,64.3-333.1,65-332.1,65.5z M-263.7,76.5h-12.7v-25c-0.1-1.8-0.5-3.2-1.4-4.2
				c-0.9-1.1-2.3-1.6-4.4-1.6c-1.9,0-3.6,0.6-5.1,1.9c-1.5,1.3-2.6,3-3.4,5.2c-0.8,2.2-1.2,4.7-1.2,7.5v16.2h-12.7V36.8h11.5
				l0.9,6.3c1.4-2.4,3.3-4.4,5.8-5.9c2.5-1.5,5.7-2.3,9.4-2.3c3.8,0,6.9,1.1,9.4,3.3c2.5,2.2,3.8,5.1,3.9,8.6V76.5z"/>
			<path class="st9" d="M-349.2,61.4c-0.1-0.4-0.1-0.7-0.2-1C-349.3,60.7-349.3,61-349.2,61.4z"/>
		</g>
		<rect x="-382.9" y="-3.3" class="st3" width="21" height="21"/>
		<rect x="-356.2" y="-3.3" class="st4" width="21" height="21"/>
		<rect x="-328.9" y="-3.3" class="st5" width="21" height="21"/>
		<rect x="-302.1" y="-3.3" class="st6" width="21" height="21"/>
		<rect x="-276" y="-3.3" class="st7" width="21" height="21"/>
		<rect x="-382.9" y="-3.3" class="st8" width="21" height="21"/>
		<rect x="-356.2" y="-3.3" class="st8" width="21" height="21"/>
		<rect x="-328.9" y="-3.3" class="st8" width="21" height="21"/>
		<rect x="-302.1" y="-3.3" class="st8" width="21" height="21"/>
		<rect x="-276" y="-3.3" class="st8" width="21" height="21"/>
	</g>
	<g>
		<g>
			<path class="st2" d="M-479.3-100.6c-3.7-3.3-8.3-5-14-5c-4.2,0-8.1,1-11.5,2.9c-3.5,1.9-6.2,4.5-8.3,7.7
				c-2.1,3.2-3.1,6.8-3.1,10.8c0,4.2,0.9,7.9,2.6,11.1c1.8,3.2,4.3,5.7,7.7,7.5s7.5,2.7,12.3,2.7c2.2,0,4.5-0.4,6.9-1.1
				s4.7-1.7,6.9-2.9l-5.6-9.4c-1.3,0.8-2.6,1.4-3.9,1.9c-1.3,0.5-2.6,0.7-4,0.7c-1.9,0-3.7-0.4-5.3-1.3c-1-0.5-1.9-1.3-2.6-2.1
				l27.1-8.6c0.1-2,0.3-3.8,0.8-5.5C-474.7-95.1-476.6-98.2-479.3-100.6z M-502.5-90.6c0.8-1.6,1.8-2.8,3.3-3.7
				c1.4-0.9,3.1-1.3,5-1.3c2.5,0,4.3,0.6,5.6,1.8c1.2,1.1,2,2.4,2.5,3.9l-17.4,5.9c0-0.3,0-0.5,0-0.8
				C-503.7-87.1-503.3-89-502.5-90.6z"/>
			<path class="st2" d="M-440.1-100.8c-1.6-1.6-3.5-2.8-5.9-3.6c-2.3-0.8-4.8-1.2-7.3-1.2c-4,0-7.6,0.8-10.7,2.5
				c-3.1,1.6-5.6,4-7.4,7.2c-0.9,1.5-1.5,3.1-1.9,4.9c0.5,1.5,0.9,3.1,1.2,4.9l-2,0.6c0,0.4,0,0.7,0,1.1c0,4.5,0.8,8.4,2.5,11.6
				c1.7,3.3,4,5.8,6.9,7.5c2.9,1.7,6.2,2.6,9.9,2.6c3.3,0,6.3-0.6,8.8-1.8c2.1-1,4.1-2.2,5.9-3.5v4.2h12.7v-71.7h-12.6V-100.8z
				 M-442.8-76.3c-1,0.9-2.2,1.5-3.5,2c-1.3,0.5-2.8,0.7-4.5,0.7c-1.9,0-3.6-0.5-5.2-1.5c-1.6-1-2.9-2.3-3.9-4
				c-1-1.7-1.5-3.6-1.5-5.7c0-2.1,0.5-4,1.5-5.6c1-1.6,2.3-2.9,3.9-3.9c1.6-0.9,3.3-1.4,5.2-1.4c1.7,0,3.3,0.3,4.7,0.8
				c1.4,0.5,2.6,1.2,3.6,2.2c1,0.9,1.7,2.1,2.2,3.4v9.7C-440.9-78.2-441.8-77.1-442.8-76.3z"/>
			<path class="st2" d="M-395.3-103.6v16.2c0,2.8-0.4,5.3-1.1,7.5c-0.8,2.2-1.8,4-3.2,5.2s-3,1.9-4.9,1.9c-1.9,0-3.2-0.5-4-1.6
				c-0.8-1.1-1.2-2.5-1.4-4.2v-25h-12.7v29.7c0.1,3.5,1.4,6.4,3.8,8.6c2.4,2.2,5.4,3.3,9,3.3c2.4,0,4.5-0.3,6.4-1
				c1.9-0.7,3.6-1.7,5-3c1.4-1.2,2.5-2.7,3.4-4.3l0.9,6.4h7.5v-39.7H-395.3z"/>
			<path class="st2" d="M-318.4-90c-0.5-1.5-1.3-2.8-2.5-3.9c-1.2-1.2-3.1-1.8-5.6-1.8c-1.9,0-3.5,0.4-5,1.3
				c-1.4,0.9-2.5,2.1-3.3,3.7c-0.8,1.6-1.1,3.5-1.1,5.7c0,0.3,0,0.5,0,0.8L-318.4-90z"/>
			<path class="st2" d="M-386.6-148.8v45.1h4v39.7h-4v15.1h138v-99.9H-386.6z M-330.7-74.9c1.6,0.8,3.3,1.3,5.3,1.3
				c1.4,0,2.7-0.2,4-0.7c1.3-0.5,2.6-1.1,3.9-1.9l5.6,9.4c-2.1,1.2-4.4,2.2-6.9,2.9c-2.5,0.7-4.8,1.1-6.9,1.1
				c-4.8,0-8.9-0.9-12.3-2.7s-5.9-4.3-7.7-7.5c-1-1.8-1.7-3.8-2.1-6c0.1,0.6,0.1,1.2,0.1,1.9c0,2.4-0.6,4.7-1.9,6.9
				c-1.2,2.2-3.1,3.9-5.6,5.2c-2.5,1.3-5.7,2-9.6,2c-3.3,0-6.3-0.6-9.1-1.7c-2.8-1.1-5.2-2.8-7.1-4.8l5.3-7c1.9,1.8,3.7,3,5.4,3.8
				c1.7,0.8,3.2,1.1,4.5,1.1c1,0,2-0.1,2.8-0.3c0.8-0.2,1.5-0.5,2-1c0.5-0.5,0.7-1,0.7-1.8c0-1-0.4-1.8-1.2-2.5
				c-0.8-0.6-1.9-1.1-3.1-1.5c-1.3-0.4-2.6-0.8-4.1-1.2c-3.6-1.1-6.3-2.8-7.9-5c-1.6-2.2-2.4-4.6-2.4-7.2c0-2,0.5-4,1.6-6
				c1.1-2,2.8-3.7,5.1-5.1c2.3-1.4,5.3-2,9-2c3.3,0,6.1,0.3,8.4,1c2.3,0.7,4.5,1.8,6.5,3.3l-4.8,7.4c-1.2-0.9-2.4-1.7-3.9-2.3
				c-1.4-0.6-2.7-1-4-1c-1.1-0.1-2,0.1-2.8,0.4c-0.8,0.3-1.3,0.7-1.8,1.2c-0.4,0.5-0.6,1-0.6,1.5c-0.1,1.2,0.4,2.1,1.3,2.7
				c0.9,0.7,2.1,1.2,3.6,1.5s2.9,0.8,4.3,1.3c1.9,0.6,3.6,1.4,5,2.5c1.4,1,2.5,2.3,3.2,3.7c0.4,0.7,0.6,1.4,0.8,2.2
				c-0.2-1.3-0.3-2.6-0.3-4.1c0-4,1-7.6,3.1-10.8c2.1-3.2,4.8-5.8,8.3-7.7c3.5-1.9,7.3-2.9,11.5-2.9c5.7,0,10.4,1.7,14,5
				c3.7,3.3,6,8.1,7.1,14.3l-29,9.2C-332.6-76.2-331.7-75.5-330.7-74.9z M-262.3-63.9H-275v-25c-0.1-1.8-0.5-3.2-1.4-4.2
				c-0.9-1.1-2.3-1.6-4.4-1.6c-1.9,0-3.6,0.6-5.1,1.9c-1.5,1.3-2.6,3-3.4,5.2c-0.8,2.2-1.2,4.7-1.2,7.5v16.2h-12.7v-39.7h11.5
				l0.9,6.3c1.4-2.4,3.3-4.4,5.8-5.9c2.5-1.5,5.7-2.3,9.4-2.3c3.8,0,6.9,1.1,9.4,3.3c2.5,2.2,3.8,5.1,3.9,8.6V-63.9z"/>
			<path class="st2" d="M-347.8-79.1c-0.1-0.4-0.1-0.7-0.2-1C-348-79.8-347.9-79.4-347.8-79.1z"/>
		</g>
		<rect x="-381.6" y="-143.8" class="st3" width="21" height="21"/>
		<rect x="-354.8" y="-143.8" class="st4" width="21" height="21"/>
		<rect x="-327.6" y="-143.8" class="st5" width="21" height="21"/>
		<rect x="-300.8" y="-143.8" class="st6" width="21" height="21"/>
		<rect x="-274.6" y="-143.8" class="st7" width="21" height="21"/>
		<rect x="-381.6" y="-143.8" class="st8" width="21" height="21"/>
		<rect x="-354.8" y="-143.8" class="st8" width="21" height="21"/>
		<rect x="-327.6" y="-143.8" class="st8" width="21" height="21"/>
		<rect x="-300.8" y="-143.8" class="st8" width="21" height="21"/>
		<rect x="-274.6" y="-143.8" class="st8" width="21" height="21"/>
	</g>
</g>
<g>
	<g>
		<path class="st2" d="M-537.3,297.8c-3.7-3.3-8.3-5-14-5c-4.2,0-8.1,1-11.5,2.9c-3.5,1.9-6.2,4.5-8.3,7.7
			c-2.1,3.2-3.1,6.8-3.1,10.8c0,4.2,0.9,7.9,2.6,11.1c1.8,3.2,4.3,5.7,7.7,7.5s7.5,2.7,12.3,2.7c2.2,0,4.5-0.4,6.9-1.1
			s4.7-1.7,6.9-2.9l-5.6-9.4c-1.3,0.8-2.6,1.4-3.9,1.9c-1.3,0.5-2.6,0.7-4,0.7c-1.9,0-3.7-0.4-5.3-1.3c-1-0.5-1.9-1.3-2.6-2.1
			l27.1-8.6c0.1-2,0.3-3.8,0.8-5.5C-532.7,303.3-534.6,300.2-537.3,297.8z M-560.6,307.8c0.8-1.6,1.8-2.8,3.3-3.7
			c1.4-0.9,3.1-1.3,5-1.3c2.5,0,4.3,0.6,5.6,1.8c1.2,1.1,2,2.4,2.5,3.9l-17.4,5.9c0-0.3,0-0.5,0-0.8
			C-561.7,311.3-561.3,309.4-560.6,307.8z"/>
		<path class="st2" d="M-498.1,297.6c-1.6-1.6-3.5-2.8-5.9-3.6c-2.3-0.8-4.8-1.2-7.3-1.2c-4,0-7.6,0.8-10.7,2.5
			c-3.1,1.6-5.6,4-7.4,7.2c-0.9,1.5-1.5,3.1-1.9,4.9c0.5,1.5,0.9,3.1,1.2,4.9l-2,0.6c0,0.4,0,0.7,0,1.1c0,4.5,0.8,8.4,2.5,11.6
			c1.7,3.3,4,5.8,6.9,7.5c2.9,1.7,6.2,2.6,9.9,2.6c3.3,0,6.3-0.6,8.8-1.8c2.1-1,4.1-2.2,5.9-3.5v4.2h12.7v-71.7h-12.6V297.6z
			 M-500.8,322.2c-1,0.9-2.2,1.5-3.5,2c-1.3,0.5-2.8,0.7-4.5,0.7c-1.9,0-3.6-0.5-5.2-1.5c-1.6-1-2.9-2.3-3.9-4
			c-1-1.7-1.5-3.6-1.5-5.7c0-2.1,0.5-4,1.5-5.6c1-1.6,2.3-2.9,3.9-3.9c1.6-0.9,3.3-1.4,5.2-1.4c1.7,0,3.3,0.3,4.7,0.8
			c1.4,0.5,2.6,1.2,3.6,2.2c1,0.9,1.7,2.1,2.2,3.4v9.7C-498.9,320.2-499.8,321.3-500.8,322.2z"/>
		<path class="st2" d="M-453.3,294.8v16.2c0,2.8-0.4,5.3-1.1,7.5c-0.8,2.2-1.8,4-3.2,5.2s-3,1.9-4.9,1.9c-1.9,0-3.2-0.5-4-1.6
			c-0.8-1.1-1.2-2.5-1.4-4.2v-25h-12.7v29.7c0.1,3.5,1.4,6.4,3.8,8.6c2.4,2.2,5.4,3.3,9,3.3c2.4,0,4.5-0.3,6.4-1
			c1.9-0.7,3.6-1.7,5-3c1.4-1.2,2.5-2.7,3.4-4.3l0.9,6.4h7.5v-39.7H-453.3z"/>
		<path class="st2" d="M-376.4,308.4c-0.5-1.5-1.3-2.8-2.5-3.9c-1.2-1.2-3.1-1.8-5.6-1.8c-1.9,0-3.5,0.4-5,1.3
			c-1.4,0.9-2.5,2.1-3.3,3.7c-0.8,1.6-1.1,3.5-1.1,5.7c0,0.3,0,0.5,0,0.8L-376.4,308.4z"/>
		<path class="st2" d="M-444.6,249.6v45.1h4v39.7h-4v15.1h138v-99.9H-444.6z M-388.7,323.5c1.6,0.8,3.3,1.3,5.3,1.3
			c1.4,0,2.7-0.2,4-0.7c1.3-0.5,2.6-1.1,3.9-1.9l5.6,9.4c-2.1,1.2-4.4,2.2-6.9,2.9c-2.5,0.7-4.8,1.1-6.9,1.1
			c-4.8,0-8.9-0.9-12.3-2.7s-5.9-4.3-7.7-7.5c-1-1.8-1.7-3.8-2.1-6c0.1,0.6,0.1,1.2,0.1,1.9c0,2.4-0.6,4.7-1.9,6.9
			c-1.2,2.2-3.1,3.9-5.6,5.2c-2.5,1.3-5.7,2-9.6,2c-3.3,0-6.3-0.6-9.1-1.7c-2.8-1.1-5.2-2.8-7.1-4.8l5.3-7c1.9,1.8,3.7,3,5.4,3.8
			c1.7,0.8,3.2,1.1,4.5,1.1c1,0,2-0.1,2.8-0.3c0.8-0.2,1.5-0.5,2-1c0.5-0.5,0.7-1,0.7-1.8c0-1-0.4-1.8-1.2-2.5
			c-0.8-0.6-1.9-1.1-3.1-1.5c-1.3-0.4-2.6-0.8-4.1-1.2c-3.6-1.1-6.3-2.8-7.9-5c-1.6-2.2-2.4-4.6-2.4-7.2c0-2,0.5-4,1.6-6
			c1.1-2,2.8-3.7,5.1-5.1c2.3-1.4,5.3-2,9-2c3.3,0,6.1,0.3,8.4,1c2.3,0.7,4.5,1.8,6.5,3.3l-4.8,7.4c-1.2-0.9-2.4-1.7-3.9-2.3
			c-1.4-0.6-2.7-1-4-1c-1.1-0.1-2,0.1-2.8,0.4c-0.8,0.3-1.3,0.7-1.8,1.2c-0.4,0.5-0.6,1-0.6,1.5c-0.1,1.2,0.4,2.1,1.3,2.7
			c0.9,0.7,2.1,1.2,3.6,1.5s2.9,0.8,4.3,1.3c1.9,0.6,3.6,1.4,5,2.5c1.4,1,2.5,2.3,3.2,3.7c0.4,0.7,0.6,1.4,0.8,2.2
			c-0.2-1.3-0.3-2.6-0.3-4.1c0-4,1-7.6,3.1-10.8c2.1-3.2,4.8-5.8,8.3-7.7c3.5-1.9,7.3-2.9,11.5-2.9c5.7,0,10.4,1.7,14,5
			c3.7,3.3,6,8.1,7.1,14.3l-29,9.2C-390.6,322.2-389.7,322.9-388.7,323.5z M-320.3,334.5H-333v-25c-0.1-1.8-0.5-3.2-1.4-4.2
			c-0.9-1.1-2.3-1.6-4.4-1.6c-1.9,0-3.6,0.6-5.1,1.9c-1.5,1.3-2.6,3-3.4,5.2c-0.8,2.2-1.2,4.7-1.2,7.5v16.2h-12.7v-39.7h11.5
			l0.9,6.3c1.4-2.4,3.3-4.4,5.8-5.9c2.5-1.5,5.7-2.3,9.4-2.3c3.8,0,6.9,1.1,9.4,3.3c2.5,2.2,3.8,5.1,3.9,8.6V334.5z"/>
		<path class="st2" d="M-405.8,319.3c-0.1-0.4-0.1-0.7-0.2-1C-406,318.6-405.9,319-405.8,319.3z"/>
	</g>
	<rect x="-439.6" y="254.6" class="st3" width="21" height="21"/>
	<rect x="-412.8" y="254.6" class="st4" width="21" height="21"/>
	<rect x="-385.6" y="254.6" class="st5" width="21" height="21"/>
	<rect x="-358.8" y="254.6" class="st6" width="21" height="21"/>
	<rect x="-332.6" y="254.6" class="st7" width="21" height="21"/>
	<rect x="-439.6" y="254.6" class="st8" width="21" height="21"/>
	<rect x="-412.8" y="254.6" class="st8" width="21" height="21"/>
	<rect x="-385.6" y="254.6" class="st8" width="21" height="21"/>
	<rect x="-358.8" y="254.6" class="st8" width="21" height="21"/>
	<rect x="-332.6" y="254.6" class="st8" width="21" height="21"/>
</g>
<rect x="-1095.2" y="-103.7" class="st11" width="79.1" height="79.1"/>
<rect x="-1194.3" y="-103.7" class="st12" width="79.1" height="79.1"/>
<rect x="-996.2" y="-103.7" class="st13" width="79.1" height="79.1"/>
<rect x="-1194.3" y="13.2" class="st14" width="79.1" height="79.1"/>
<rect x="-1095.2" y="13.2" class="st15" width="79.1" height="79.1"/>
<rect x="-996.2" y="13.2" class="st16" width="79.1" height="79.1"/>
<text transform="matrix(1 0 0 1 -1179.1036 108.2617)" style="font-family:'Cabin-Bold'; font-size:12px;">#b6860f</text>
<text transform="matrix(1 0 0 1 -1176.9977 -8.0626)" style="font-family:'Cabin-Bold'; font-size:12px;">#417aaa</text>
<text transform="matrix(1 0 0 1 -1080.4172 -8.0626)" style="font-family:'Cabin-Bold'; font-size:12px;">#5288b6</text>
<text transform="matrix(1 0 0 1 -1079.0012 108.2614)" style="font-family:'Cabin-Bold'; font-size:12px;">#184188</text>
<text transform="matrix(1 0 0 1 -981.0047 -8.0626)" style="font-family:'Cabin-Bold'; font-size:12px;">#0d7d41</text>
<text transform="matrix(1 0 0 1 -979.3065 108.2614)" style="font-family:'Cabin-Bold'; font-size:12px;">#8a1814</text>
</svg>
